<svg width="46" height="52" viewBox="0 0 46 52" fill="none" xmlns="http://www.w3.org/2000/svg">
<path d="M45.5 28.7001C45.5 43.1644 37.4643 51.2001 23 51.2001C8.53571 51.2001 0.5 43.1644 0.5 28.7001C0.5 14.2358 8.53571 6.20007 23 6.20007C37.4643 6.20007 45.5 14.2358 45.5 28.7001Z" fill="#F9F9F9"/>
<path fill-rule="evenodd" clip-rule="evenodd" d="M43.7 28.7001C43.7 35.6066 41.7867 40.716 38.4013 44.1014C35.0159 47.4869 29.9065 49.4001 23 49.4001C16.0935 49.4001 10.9841 47.4869 7.59869 44.1014C4.21328 40.716 2.3 35.6066 2.3 28.7001C2.3 21.7936 4.21328 16.6842 7.59869 13.2988C10.9841 9.9134 16.0935 8.00012 23 8.00012C29.9065 8.00012 35.0159 9.9134 38.4013 13.2988C41.7867 16.6842 43.7 21.7936 43.7 28.7001ZM41.9 28.7001C41.9 35.281 40.0824 39.8748 37.1285 42.8286C34.1747 45.7825 29.5809 47.6001 23 47.6001C16.4191 47.6001 11.8253 45.7825 8.87148 42.8286C5.91762 39.8748 4.1 35.281 4.1 28.7001C4.1 22.1192 5.91762 17.5255 8.87148 14.5716C11.8253 11.6177 16.4191 9.80012 23 9.80012C29.5809 9.80012 34.1747 11.6177 37.1285 14.5716C40.0824 17.5255 41.9 22.1192 41.9 28.7001Z" fill="white"/>
<path fill-rule="evenodd" clip-rule="evenodd" d="M38.4013 44.1014C41.7867 40.716 43.7 35.6066 43.7 28.7001C43.7 21.7936 41.7867 16.6842 38.4013 13.2988C35.0159 9.91335 29.9065 8.00007 23 8.00007C16.0935 8.00007 10.9841 9.91335 7.59868 13.2988C4.21327 16.6842 2.3 21.7936 2.3 28.7001C2.3 35.6066 4.21327 40.716 7.59868 44.1014C10.9841 47.4868 16.0935 49.4001 23 49.4001C29.9065 49.4001 35.0159 47.4868 38.4013 44.1014ZM23 51.2001C37.4643 51.2001 45.5 43.1644 45.5 28.7001C45.5 14.2358 37.4643 6.20007 23 6.20007C8.53571 6.20007 0.5 14.2358 0.5 28.7001C0.5 43.1644 8.53571 51.2001 23 51.2001Z" fill="#DDDDDD"/>
<path d="M39.2 28.7C39.2 39.1143 33.4143 44.9 23 44.9C12.5857 44.9 6.8 39.1143 6.8 28.7C6.8 18.2857 12.5857 12.5 23 12.5C33.4143 12.5 39.2 18.2857 39.2 28.7Z" fill="#F1F1F1"/>
<path d="M29.3 2.60005C29.3 1.60594 28.4941 0.800049 27.5 0.800049H18.5C17.5059 0.800049 16.7 1.60594 16.7 2.60005C16.7 3.59416 17.5059 4.40005 18.5 4.40005H20.75C20.9985 4.40005 21.2 4.60152 21.2 4.85005L21.2 6.20005C21.2 6.21441 21.2002 6.22872 21.2005 6.24299C21.7888 6.2144 22.3886 6.20005 23 6.20005C23.6114 6.20005 24.2112 6.21441 24.7995 6.24299C24.7998 6.22872 24.8 6.21441 24.8 6.20005V4.85005C24.8 4.60152 25.0015 4.40005 25.25 4.40005H27.5C28.4941 4.40005 29.3 3.59416 29.3 2.60005Z" fill="#BBBBBB"/>
<path d="M41.0563 13.5876C38.9065 10.8408 36.0009 8.82852 32.3926 7.60394L32.9277 6.71403C33.6961 5.43609 35.355 5.02301 36.6329 5.79141L41.0108 8.42367C42.2887 9.19207 42.7018 10.851 41.9334 12.1289L41.0563 13.5876Z" fill="#BBBBBB"/>
<path d="M22.5239 16.5836C22.5588 16.3058 22.7613 16.1001 22.9998 16.1001C23.2384 16.1001 23.4409 16.3058 23.4758 16.5836L24.8989 28.2501C25.0704 29.6148 24.1718 30.5001 22.9998 30.5001C21.8278 30.5001 20.9296 29.6147 21.101 28.2501L22.5239 16.5836Z" fill="#BBBBBB"/>
<path d="M29.1944 17.9716C29.543 18.1728 29.6624 18.6185 29.4612 18.967L28.7325 20.2292C28.5312 20.5777 28.0855 20.6972 27.737 20.4959C27.3885 20.2947 27.269 19.849 27.4703 19.5005L28.199 18.2383C28.4002 17.8898 28.8459 17.7703 29.1944 17.9716Z" fill="#BBBBBB"/>
<path d="M14.7959 23.9634C14.5946 24.312 14.1489 24.4314 13.8004 24.2302L12.5382 23.5014C12.1897 23.3002 12.0703 22.8545 12.2715 22.506C12.4727 22.1574 12.9184 22.038 13.2669 22.2393L14.5291 22.968C14.8777 23.1692 14.9971 23.6149 14.7959 23.9634Z" fill="#BBBBBB"/>
<path d="M13.4706 29.6531C13.9969 29.6531 14.4236 29.2264 14.4236 28.7001C14.4236 28.1738 13.9969 27.7472 13.4706 27.7472H11.5648C11.0385 27.7472 10.6118 28.1738 10.6118 28.7001C10.6118 29.2264 11.0385 29.6531 11.5648 29.6531H13.4706Z" fill="#BBBBBB"/>
<path d="M34.4352 29.6531C34.9615 29.6531 35.3881 29.2264 35.3881 28.7001C35.3881 28.1738 34.9615 27.7472 34.4352 27.7472H32.5293C32.003 27.7472 31.5764 28.1738 31.5764 28.7001C31.5764 29.2264 32.003 29.6531 32.5293 29.6531H34.4352Z" fill="#BBBBBB"/>
<path d="M23.0002 37.2766C23.5265 37.2766 23.9531 37.7032 23.9531 38.2295V40.1354C23.9531 40.6617 23.5265 41.0883 23.0002 41.0883C22.4739 41.0883 22.0472 40.6617 22.0472 40.1354V38.2295C22.0472 37.7032 22.4739 37.2766 23.0002 37.2766Z" fill="#BBBBBB"/>
<path d="M32.7329 35.1609C33.0815 35.3621 33.5271 35.2427 33.7284 34.8942C33.9296 34.5456 33.8102 34.0999 33.4616 33.8987L32.1995 33.17C31.8509 32.9688 31.4052 33.0882 31.204 33.4367C31.0028 33.7853 31.1222 34.2309 31.4707 34.4322L32.7329 35.1609Z" fill="#BBBBBB"/>
<path d="M12.2715 34.8942C12.4728 35.2427 12.9184 35.3621 13.267 35.1609L14.5292 34.4322C14.8777 34.2309 14.9971 33.7853 14.7959 33.4367C14.5947 33.0882 14.149 32.9688 13.8004 33.17L12.5383 33.8987C12.1897 34.0999 12.0703 34.5456 12.2715 34.8942Z" fill="#BBBBBB"/>
<path d="M31.2045 23.9634C31.4057 24.312 31.8514 24.4314 32.1999 24.2302L33.4621 23.5014C33.8107 23.3002 33.9301 22.8545 33.7288 22.506C33.5276 22.1574 33.0819 22.038 32.7334 22.2393L31.4712 22.968C31.1227 23.1692 31.0033 23.6149 31.2045 23.9634Z" fill="#BBBBBB"/>
<path d="M18.5302 37.8998C18.7315 37.5512 18.612 37.1055 18.2635 36.9043C17.9149 36.7031 17.4693 36.8225 17.268 37.171L16.5393 38.4332C16.3381 38.7818 16.4575 39.2274 16.8061 39.4287C17.1546 39.6299 17.6003 39.5105 17.8015 39.1619L18.5302 37.8998Z" fill="#BBBBBB"/>
<path d="M16.8059 19.1291C16.6047 18.7805 16.7241 18.3349 17.0726 18.1336C17.4212 17.9324 17.8669 18.0518 18.0681 18.4004L18.7968 19.6625C18.998 20.0111 18.8786 20.4568 18.5301 20.658C18.1815 20.8592 17.7359 20.7398 17.5346 20.3912L16.8059 19.1291Z" fill="#BBBBBB"/>
<path d="M27.7369 38.0618C27.5356 37.7133 27.6551 37.2676 28.0036 37.0664C28.3521 36.8651 28.7978 36.9845 28.999 37.3331L29.7278 38.5953C29.929 38.9438 29.8096 39.3895 29.461 39.5907C29.1125 39.792 28.6668 39.6725 28.4656 39.324L27.7369 38.0618Z" fill="#BBBBBB"/>
<path fill-rule="evenodd" clip-rule="evenodd" d="M23 44.9001C33.4143 44.9001 39.2 39.1144 39.2 28.7001C39.2 18.2858 33.4143 12.5001 23 12.5001C12.5857 12.5001 6.8 18.2858 6.8 28.7001C6.8 39.1144 12.5857 44.9001 23 44.9001ZM33.7326 39.4327C36.0492 37.116 37.4 33.5816 37.4 28.7001C37.4 23.8186 36.0492 20.2842 33.7326 17.9675C31.4159 15.6509 27.8815 14.3001 23 14.3001C18.1185 14.3001 14.5841 15.6509 12.2674 17.9675C9.95078 20.2842 8.6 23.8186 8.6 28.7001C8.6 33.5816 9.95078 37.116 12.2674 39.4327C14.5841 41.7493 18.1185 43.1001 23 43.1001C27.8815 43.1001 31.4159 41.7493 33.7326 39.4327Z" fill="#BBBBBB"/>
</svg>
